HIERARCHY
ROOT Hips
{
	OFFSET 0.00000 0.00000 0.00000
	CHANNELS 6 Xposition Yposition Zposition Zrotation Yrotation Xrotation 
	JOINT LHipJoint
	{
		OFFSET 0 0 0
		CHANNELS 3 Zrotation Yrotation Xrotation
		JOINT LeftHip
		{
			OFFSET 1.83091 -1.65485 0.80491
			CHANNELS 3 Zrotation Yrotation Xrotation
			JOINT LeftKnee
			{
				OFFSET 2.11983 -5.82419 0.00000
				CHANNELS 3 Zrotation Yrotation Xrotation
				JOINT LeftAnkle
				{
					OFFSET 2.66794 -7.33011 0.00000
					CHANNELS 3 Zrotation Yrotation Xrotation
					JOINT LeftToe
					{
						OFFSET 0.15587 -0.42826 1.82520
						CHANNELS 3 Zrotation Yrotation Xrotation
						End Site
						{
							OFFSET 0.00000 -0.00000 0.94802
						}
					}
				}
			}
		}
	}
	JOINT RHipJoint
	{
		OFFSET 0 0 0
		CHANNELS 3 Zrotation Yrotation Xrotation
		JOINT RightHip
		{
			OFFSET -1.96593 -1.65485 0.80491
			CHANNELS 3 Zrotation Yrotation Xrotation
			JOINT RightKnee
			{
				OFFSET -2.00526 -5.50940 0.00000
				CHANNELS 3 Zrotation Yrotation Xrotation
				JOINT RightAnkle
				{
					OFFSET -2.64167 -7.25794 0.00000
					CHANNELS 3 Zrotation Yrotation Xrotation
					JOINT RightToe
					{
						OFFSET -0.19578 -0.53789 1.94104
						CHANNELS 3 Zrotation Yrotation Xrotation
						End Site
						{
							OFFSET -0.00000 -0.00000 1.01373
						}
					}
				}
			}
		}
	}
	JOINT lowerback
	{
		OFFSET 0 0 0
		CHANNELS 3 Zrotation Yrotation Xrotation
		JOINT Chest
		{
			OFFSET 0.01139 2.01356 -0.24266
			CHANNELS 3 Zrotation Yrotation Xrotation
			JOINT Chest2
			{
				OFFSET 0.00315 2.01402 -0.18659
				CHANNELS 3 Zrotation Yrotation Xrotation
				JOINT lowerneck
				{
					OFFSET 0 0 0
					CHANNELS 3 Zrotation Yrotation Xrotation
					JOINT Neck
					{
						OFFSET -0.15348 1.85288 0.32547
						CHANNELS 3 Zrotation Yrotation Xrotation
						JOINT Head
						{
							OFFSET 0.23013 1.84255 -0.51894
							CHANNELS 3 Zrotation Yrotation Xrotation
							End Site
							{
								OFFSET 0.08244 1.94374 -0.22179
							}
						}
					}
				}
				JOINT LeftCollar
				{
					OFFSET 0 0 0
					CHANNELS 3 Zrotation Yrotation Xrotation
					JOINT LeftShoulder
					{
						OFFSET 3.63468 1.26528 -0.10015
CHANNELS 3 Zrotation Xrotation Yrotation
						JOINT LeftElbow
						{
OFFSET 0 -5.535930 -0.000000
CHANNELS 3 Zrotation Xrotation Yrotation
							JOINT LeftWrist
							{
OFFSET 0 -3.133450 0.000000
CHANNELS 3 Zrotation Xrotation Yrotation
								JOINT lhand
								{
									OFFSET 0 0 0
CHANNELS 3 Zrotation Xrotation Yrotation
									JOINT LFingers
									{
OFFSET 0 -0.713370 0.000000
CHANNELS 3 Zrotation Xrotation Yrotation
										End Site
										{
OFFSET 0 -0.575140 0.000000
										}
									}
								}
								JOINT LThumb
								{
OFFSET 0 0.000000 0.000000
CHANNELS 3 Zrotation Xrotation Yrotation
									End Site
									{
OFFSET 0 -0.583920 0.583920
									}
								}
							}
						}
					}
				}
				JOINT RightCollar
				{
					OFFSET 0 0 0
					CHANNELS 3 Zrotation Yrotation Xrotation
					JOINT RightShoulder
					{
						OFFSET -3.31009 1.23247 0.08205
CHANNELS 3 Zrotation Xrotation Yrotation
						JOINT RightElbow
						{
OFFSET 0 -5.468500 0.000000
CHANNELS 3 Zrotation Xrotation Yrotation
							JOINT RightWrist
							{
OFFSET 0 -3.224110 -0.000000
CHANNELS 3 Zrotation Xrotation Yrotation
								JOINT rhand
								{
									OFFSET 0 0 0
CHANNELS 3 Zrotation Xrotation Yrotation
									JOINT RFingers
									{
OFFSET 0 -0.745280 0.000000
CHANNELS 3 Zrotation Xrotation Yrotation
										End Site
										{
OFFSET 0 -0.600860 0.000000
										}
									}
								}
								JOINT RThumb
								{
OFFSET 0 0.000000 0.000000
CHANNELS 3 Zrotation Xrotation Yrotation
									End Site
									{
OFFSET 0 -0.610040 0.610040
									}
								}
							}
						}
					}
				}
			}
		}
	}
}
MOTION
Frames: 7
Frame Time: .0083333
10.1593 15.8878 -22.0025 5.7209 6.2638 10.0146 0.0000 0.0000 0.0000 -27.6261 10.0656 17.5139 0.0000 -0.0000 -0.0000 -0.0372 -3.9547 -0.6739 0.0030 -0.3555 -0.9768 0.0000 0.0000 0.0000 12.2637 14.3854 -40.3392 -2.6761 -10.1514 29.4683 0.1189 -6.7990 -5.6763 -0.7028 5.3585 -14.9340 -3.2938 -2.3284 1.5563 0.1016 -3.1210 2.0989 1.9494 -1.6086 1.4649 -11.8631 -4.8361 -24.8551 9.4524 -4.9877 23.6906 4.7274 -2.0438 12.5509 -0.0000 0.0000 0.0000 5.7422 0.0022 -37.2537 22.6384 -33.6911 6.9367 20.7233 -2.096 -28.0235 0.0 0.0 0.0 -7.1250 0.0 0.0 -11.2094 59.2709 3.9384 -0.0000 0.0000 0.0000 -8.573 13.6744 36.6888 -20.1764 -30.8542 -5.6215 -16.7033 -17.7091 -18.7511 0.0 0.0 0.0 7.1250 0.0 -0.0 7.4614 10.593 6.0152
10.1509 15.8978 -21.8408 5.4451 6.0149 9.9623 0.0000 0.0000 0.0000 -27.6639 8.9648 13.5627 0.1839 2.7620 7.6169 -0.0459 -5.1134 -1.7834 0.0298 -1.1142 -3.0632 0.0000 0.0000 0.0000 12.9024 14.0961 -40.0071 -2.7310 -10.2464 29.7783 0.0842 -6.0503 -5.6062 -0.6796 5.2711 -14.6834 -2.9988 -2.3005 1.6241 0.2395 -3.0857 2.1073 1.9292 -1.5875 1.4249 -11.7569 -4.7739 -25.3219 9.2555 -4.8360 23.8922 4.6673 -1.9850 12.6928 0.0000 0.0000 0.0000 5.6165 0.1498 -37.2345 22.4770 -33.5119 6.8473 20.7339 -2.1337 -28.3935 0.0 0.0 0.0 -7.1250 0.0 0.0 -11.4116 59.6438 4.1126 0.0000 0.0000 0.0000 -8.6326 13.5722 36.5528 -20.1524 -30.8255 -5.6092 -16.7943 -17.7269 -19.3989 0.0 0.0 0.0 7.1250 0.0 -0.0 7.4303 9.9195 6.0921
10.1404 15.9135 -21.6809 5.2096 6.0766 10.0150 0.0000 0.0000 0.0000 -27.4063 8.0209 11.1315 0.4970 4.5200 12.5444 -0.0428 -4.9248 -1.7063 0.0027 -0.3364 -0.9242 0.0000 0.0000 0.0000 13.4112 13.7135 -39.7025 -2.7639 -10.3027 29.9625 0.0607 -5.5416 -5.6527 -0.5123 4.5878 -12.7367 -2.6670 -2.3651 1.6602 0.3507 -3.1732 1.9839 1.8632 -1.6240 1.2703 -11.7350 -4.6434 -25.2374 9.1919 -4.6484 23.8743 4.6722 -1.9103 12.6420 -0.0000 -0.0000 0.0000 5.5441 0.2891 -36.6731 22.8431 -33.9168 7.0505 15.7593 0.1895 -38.7251 0.0 0.0 0.0 -7.1250 0.0 0.0 -26.8159 67.9912 15.2334 -0.0000 -0.0000 0.0000 -8.6832 13.5837 36.6175 -20.0276 -30.6756 -5.5454 -15.8715 -17.1343 -18.3786 0.0 0.0 0.0 7.1250 0.0 -0.0 7.9905 11.0672 6.3719
10.1284 15.9326 -21.5209 5.0054 6.1977 10.1014 0.0000 0.0000 0.0000 -26.9479 7.8093 9.2637 0.8075 5.7350 16.0174 -0.0420 -4.0718 -0.4716 0.0035 0.3826 1.0514 0.0000 0.0000 0.0000 13.9774 13.1707 -39.4436 -2.8006 -10.3650 30.1670 0.0398 -4.9802 -5.5480 -0.4118 4.1193 -11.4124 -2.3717 -2.4469 1.7198 0.4470 -3.2849 1.7269 1.8077 -1.6706 0.9674 -11.8256 -4.4741 -24.7278 9.2425 -4.4502 23.8873 4.7431 -1.8357 12.5259 0.0000 -0.0000 0.0000 5.457 0.746 -36.3352 22.9629 -34.0482 7.1175 16.7274 1.0174 -35.6788 0.0 0.0 0.0 -7.1250 0.0 0.0 -21.8950 65.5836 11.1248 0.0000 -0.0000 0.0000 -8.8514 13.6765 37.2632 -19.8353 -30.4434 -5.4477 -14.8215 -16.9764 -17.1402 0.0 0.0 0.0 7.1250 0.0 -0.0 8.6482 12.4359 6.661
10.1143 15.9540 -21.3609 4.7093 5.9895 10.1408 0.0000 0.0000 0.0000 -26.4610 7.8364 7.5238 1.1466 6.7995 19.1227 -0.0225 -2.6724 0.6922 0.0116 0.6956 1.9115 0.0000 0.0000 0.0000 14.6819 12.8995 -39.0995 -2.8329 -10.4195 30.3461 0.0194 -4.3171 -5.3415 -0.3823 3.9706 -10.9941 -2.1034 -2.3852 1.7515 0.5526 -3.2024 1.5920 1.7713 -1.6241 0.7982 -11.8232 -4.4009 -24.8297 9.2297 -4.3465 24.1664 4.7679 -1.7930 12.6429 -0.0000 -0.0000 0.0000 5.4286 1.0208 -36.2716 22.9279 -34.0099 7.0979 17.3969 1.5955 -35.3666 0.0 0.0 0.0 -7.1250 0.0 0.0 -20.7918 65.488 10.496 -0.0000 -0.0000 0.0000 -8.9196 13.6859 37.6532 -19.9611 -30.5954 -5.5115 -14.5635 -17.2664 -16.8257 0.0 0.0 0.0 7.1250 0.0 -0.0 8.8134 12.7797 6.7274
10.1041 15.9832 -21.1927 4.5699 5.8556 10.0145 0.0000 0.0000 0.0000 -26.0731 7.9201 6.0470 1.5363 7.8249 22.1836 0.0035 -0.9745 1.8774 0.0145 0.7780 2.1381 0.0000 0.0000 0.0000 15.2493 12.4850 -38.5223 -2.8604 -10.4655 30.4977 -0.0067 -3.5048 -5.3092 -0.3537 3.8211 -10.5739 -1.8922 -2.3454 1.7078 0.5592 -3.1456 1.6967 1.6552 -1.5957 0.9161 -11.7213 -4.4405 -25.1479 9.1253 -4.3812 24.3158 4.7094 -1.8079 12.7641 0.0000 -0.0000 0.0000 5.5984 1.042 -36.6844 22.8500 -33.9244 7.0544 17.5368 1.2509 -34.6297 0.0 0.0 0.0 -7.1250 0.0 0.0 -19.8665 64.848 9.7183 0.0000 -0.0000 0.0000 -8.8118 13.536 37.6136 -20.2056 -30.8893 -5.6365 -14.6536 -17.2275 -16.9148 0.0 0.0 0.0 7.1250 0.0 -0.0 8.7551 12.6808 6.7002
10.0995 16.0167 -21.0206 4.5873 5.9376 9.8404 0.0000 0.0000 0.0000 -25.8228 7.7871 4.6830 1.9898 8.8447 25.3107 0.0324 0.7990 3.2156 0.0065 0.5213 1.4324 0.0000 0.0000 0.0000 15.6531 11.8152 -37.7619 -2.8682 -10.4786 30.5409 -0.0350 -2.6309 -5.4626 -0.3057 3.5548 -9.8275 -1.6683 -2.3913 1.6653 0.4781 -3.2026 1.8165 1.4424 -1.6231 1.0480 -11.6259 -4.4095 -25.1814 9.1031 -4.3636 24.3012 4.6871 -1.7930 12.7592 -0.0000 0.0000 0.0000 5.8505 1.1309 -37.418 22.7760 -33.8429 7.0131 18.2972 0.1558 -32.8095 0.0 0.0 0.0 -7.1250 0.0 0.0 -17.3021 63.3459 7.8205 -0.0000 0.0000 0.0000 -8.7463 13.282 37.7892 -20.1960 -30.8777 -5.6316 -14.7213 -17.2048 -16.9998 0.0 0.0 0.0 7.1250 0.0 -0.0 8.7118 12.5881 6.6832
